<?xml version="1.0" encoding="UTF-8" standalone="no"?>
<svg
   xmlns:dc="http://purl.org/dc/elements/1.1/"
   xmlns:cc="http://creativecommons.org/ns#"
   xmlns:rdf="http://www.w3.org/1999/02/22-rdf-syntax-ns#"
   xmlns:svg="http://www.w3.org/2000/svg"
   xmlns="http://www.w3.org/2000/svg"
   xmlns:sodipodi="http://sodipodi.sourceforge.net/DTD/sodipodi-0.dtd"
   xmlns:inkscape="http://www.inkscape.org/namespaces/inkscape"
   width="386mm"
   height="163mm"
   viewBox="0 0 386 163"
   version="1.1"
   preserveAspectRatio="xMidYMid meet"
   id="svg88"
   sodipodi:docname="behuizingBox.svg"
   inkscape:version="1.0 (4035a4fb49, 2020-05-01)">
  <metadata
     id="metadata94">
    <rdf:RDF>
      <cc:Work
         rdf:about="">
        <dc:format>image/svg+xml</dc:format>
        <dc:type
           rdf:resource="http://purl.org/dc/dcmitype/StillImage" />
        <dc:title></dc:title>
      </cc:Work>
    </rdf:RDF>
  </metadata>
  <defs
     id="defs92" />
  <sodipodi:namedview
     inkscape:document-rotation="0"
     pagecolor="#ffffff"
     bordercolor="#666666"
     borderopacity="1"
     objecttolerance="10"
     gridtolerance="10"
     guidetolerance="10"
     inkscape:pageopacity="0"
     inkscape:pageshadow="2"
     inkscape:window-width="1920"
     inkscape:window-height="1001"
     id="namedview90"
     showgrid="false"
     inkscape:zoom="1.1710006"
     inkscape:cx="675.63474"
     inkscape:cy="353.0827"
     inkscape:window-x="-9"
     inkscape:window-y="-9"
     inkscape:window-maximized="1"
     inkscape:current-layer="svgGroup" />
  <g
     id="svgGroup"
     stroke-linecap="round"
     fill-rule="evenodd"
     font-size="9pt"
     stroke="#000"
     stroke-width="0.25mm"
     fill="none"
     style="stroke:#000;stroke-width:0.25mm;fill:none">
    <path
       d="m 0,88 v 10.5 h 3 v 18 H 0 v 18 h 3 v 18 H 0 V 163 h 30 v -3 h 18 v 3 h 18 v -3 h 18 v 3 h 18 v -3 h 18 v 3 h 18 12 v -10.5 h -3 v -18 h 3 v -18 h -3 v -18 h 3 V 88 h -30 v 3 H 102 V 88 H 84 v 3 H 66 V 88 H 48 v 3 H 30 V 88 H 12 Z"
       id="front_outsideCutPath"
       stroke="#FF0000"
       stroke-width="0.1"
       style="fill:none;stroke:#ff0000;stroke-width:0.01;stroke-opacity:1;stroke-miterlimit:4.80000019;stroke-dasharray:none"
       vector-effect="non-scaling-stroke" />
    <path
       d="m 154.88162,87.680464 v 10.5 h -3 v 17.999996 h 3 v 18 h -3 v 18 h 3 v 10.5 h 10 v -3 h 18 v 3 h 18 v -3 h 18 v 3 h 10 v -10.5 h 3 v -18 h -3 v -18 h 3 V 98.180464 h -3 v -10.5 h -10 v 3 h -18 v -3 h -18 v 3 h -18 v -3 z"
       id="left_outsideCutPath"
       stroke="#FF0000"
       stroke-width="0.1"
       style="stroke:#ff0000;stroke-width:0.01;stroke-miterlimit:4.80000019;stroke-dasharray:none"
       vector-effect="non-scaling-stroke" />
    <path
       d="m 197.21762,122.81846 v 0.945 h -2.044 v 7.082 h -1.216 v -7.082 h -1.435 v -0.55 l 1.435,-0.439 v -0.447 a 4.928,4.928 0 0 1 0.115,-1.117 q 0.356,-1.523 1.812,-1.787 a 3.696,3.696 0 0 1 0.659,-0.055 q 0.637,0 1.494,0.256 l -0.315,0.975 q -0.499,-0.162 -0.895,-0.208 a 2.615,2.615 0 0 0 -0.306,-0.02 1.64,1.64 0 0 0 -0.395,0.045 1.053,1.053 0 0 0 -0.623,0.413 1.407,1.407 0 0 0 -0.186,0.375 q -0.124,0.367 -0.141,0.911 a 5.74,5.74 0 0 0 -0.003,0.183 v 0.52 z m -5.691,3.464 v 0.769 h -5.53 a 4.88,4.88 0 0 0 0.085,0.817 q 0.088,0.445 0.264,0.797 a 2.283,2.283 0 0 0 0.365,0.532 2.209,2.209 0 0 0 1.16,0.654 3.347,3.347 0 0 0 0.748,0.079 6.421,6.421 0 0 0 2.405,-0.477 7.358,7.358 0 0 0 0.159,-0.065 v 1.084 a 7.299,7.299 0 0 1 -0.666,0.251 5.582,5.582 0 0 1 -0.554,0.148 q -0.575,0.121 -1.388,0.121 -1.78,0 -2.809,-1.084 -1.029,-1.084 -1.029,-3.011 0,-1.582 0.635,-2.633 a 3.6,3.6 0 0 1 0.321,-0.45 3.116,3.116 0 0 1 2.271,-1.133 4.298,4.298 0 0 1 0.296,-0.01 3.704,3.704 0 0 1 1.043,0.14 2.818,2.818 0 0 1 1.345,0.853 3.4,3.4 0 0 1 0.77,1.553 4.949,4.949 0 0 1 0.109,1.065 z m 10.847,3.56 v 0.93 q -0.179,0.086 -0.51,0.145 a 4.545,4.545 0 0 1 -0.072,0.012 q -0.359,0.058 -0.651,0.062 a 3.113,3.113 0 0 1 -0.041,0.001 q -2.33,0 -2.33,-2.454 v -4.775 h -1.149 v -0.586 l 1.149,-0.506 0.513,-1.714 h 0.703 v 1.861 h 2.329 v 0.945 h -2.329 v 4.724 a 2.448,2.448 0 0 0 0.036,0.43 q 0.042,0.236 0.134,0.422 a 1.179,1.179 0 0 0 0.174,0.261 1.129,1.129 0 0 0 0.695,0.37 1.625,1.625 0 0 0 0.25,0.018 3.993,3.993 0 0 0 0.585,-0.042 3.68,3.68 0 0 0 0.038,-0.005 6.577,6.577 0 0 0 0.175,-0.031 q 0.168,-0.031 0.285,-0.064 a 1.826,1.826 0 0 0 0.016,-0.004 z m -19.768,-10.393 v 11.396 h -1.216 v -11.396 z m 3.42,6.613 h 4.197 a 4.143,4.143 0 0 0 -0.05,-0.666 q -0.058,-0.357 -0.184,-0.643 a 1.881,1.881 0 0 0 -0.279,-0.452 1.666,1.666 0 0 0 -1.003,-0.571 2.499,2.499 0 0 0 -0.461,-0.041 2.397,2.397 0 0 0 -0.693,0.096 1.852,1.852 0 0 0 -0.849,0.534 q -0.52,0.57 -0.654,1.536 a 4.593,4.593 0 0 0 -0.024,0.207 z"
       id="left_labelLayer"
       stroke="#777777"
       fill="#777777"
       style="fill:#777777;stroke:#777777;stroke-width:0.01;stroke-miterlimit:4.80000019;stroke-dasharray:none"
       vector-effect="non-scaling-stroke" />
    <path
       d="M 239,86.000004 V 96 h -3.00002 v 18.00004 H 239 v 17.99993 h -3.00002 v 18.00004 H 239 v 9.99997 h 27.00003 V 163 h 17.99995 v -3.00002 h 17.99996 V 163 h 18.00012 v -3.00002 h 17.99996 V 163 h 17.99995 v -3.00002 H 373.99994 383 v -9.99997 h 3.00002 V 131.99997 H 383 v -17.99993 h 3.00002 V 96 H 383 v -9.999996 h -27.00003 v -3.000005 h -17.99995 v 3.000005 h -17.99996 v -3.000005 h -18.00012 v 3.000005 h -17.99996 v -3.000005 h -17.99995 v 3.000005 h -17.99997 z"
       id="top_outsideCutPath"
       stroke="#FF0000"
       stroke-width="0.1"
       style="stroke:#ff0000;stroke-width:0.01;stroke-miterlimit:4.80000019;stroke-dasharray:none"
       vector-effect="non-scaling-stroke" />
    <path
       d="M 316.75 125.25 L 316.656 125.25 A 12.273 12.273 0 0 1 316.737 126.157 A 10.284 10.284 0 0 1 316.75 126.672 L 316.75 130.195 L 315.453 130.195 L 315.453 117.789 L 316.508 117.789 L 316.687 118.961 L 316.75 118.961 A 3.491 3.491 0 0 1 317.255 118.388 A 2.699 2.699 0 0 1 317.914 117.945 A 3.248 3.248 0 0 1 318.845 117.673 A 4.204 4.204 0 0 1 319.437 117.633 A 3.975 3.975 0 0 1 320.56 117.783 A 2.938 2.938 0 0 1 322.066 118.797 A 3.894 3.894 0 0 1 322.731 120.094 Q 322.902 120.653 322.961 121.326 A 8.445 8.445 0 0 1 322.992 122.062 Q 322.992 123.551 322.523 124.571 A 3.645 3.645 0 0 1 322.051 125.34 A 3.07 3.07 0 0 1 319.869 126.487 A 4.399 4.399 0 0 1 319.437 126.508 A 3.934 3.934 0 0 1 318.449 126.387 A 3.423 3.423 0 0 1 317.91 126.199 A 2.872 2.872 0 0 1 316.75 125.25 Z M 304.078 125.281 L 304.078 126.273 A 1.276 1.276 0 0 1 303.927 126.333 Q 303.739 126.396 303.457 126.441 A 5.621 5.621 0 0 1 303.09 126.489 Q 302.918 126.505 302.763 126.508 A 3.325 3.325 0 0 1 302.719 126.508 A 3.387 3.387 0 0 1 301.72 126.373 Q 300.623 126.035 300.336 124.843 A 4.076 4.076 0 0 1 300.234 123.891 L 300.234 118.797 L 299.008 118.797 L 299.008 118.172 L 300.234 117.633 L 300.781 115.805 L 301.531 115.805 L 301.531 117.789 L 304.016 117.789 L 304.016 118.797 L 301.531 118.797 L 301.531 123.836 A 2.611 2.611 0 0 0 301.569 124.295 Q 301.649 124.742 301.898 125.023 Q 302.266 125.438 302.906 125.438 A 4.259 4.259 0 0 0 303.53 125.393 A 3.925 3.925 0 0 0 303.57 125.387 Q 303.876 125.338 304.061 125.286 A 1.951 1.951 0 0 0 304.078 125.281 Z M 313.061 123.366 A 6.699 6.699 0 0 0 313.18 122.062 Q 313.18 121.23 313.003 120.538 A 4.038 4.038 0 0 0 312.121 118.828 A 3.395 3.395 0 0 0 310.545 117.812 A 4.358 4.358 0 0 0 309.266 117.633 A 5.037 5.037 0 0 0 308.361 117.71 A 3.43 3.43 0 0 0 306.359 118.801 Q 305.312 119.969 305.312 122.063 A 6.488 6.488 0 0 0 305.394 123.113 A 4.798 4.798 0 0 0 305.797 124.422 A 4.263 4.263 0 0 0 305.891 124.607 A 3.511 3.511 0 0 0 307.172 125.969 Q 308.062 126.508 309.211 126.508 A 5.036 5.036 0 0 0 310.09 126.434 A 3.457 3.457 0 0 0 312.125 125.332 A 3.618 3.618 0 0 0 312.556 124.74 Q 312.907 124.139 313.061 123.366 Z M 306.656 122.063 A 6.567 6.567 0 0 0 306.719 123.001 Q 306.859 123.968 307.312 124.563 Q 307.969 125.422 309.242 125.422 A 3.012 3.012 0 0 0 310.037 125.323 A 2.096 2.096 0 0 0 311.176 124.566 Q 311.836 123.711 311.836 122.063 A 6.471 6.471 0 0 0 311.775 121.14 Q 311.707 120.671 311.564 120.291 A 2.67 2.67 0 0 0 311.176 119.582 A 2.133 2.133 0 0 0 309.849 118.791 A 3.271 3.271 0 0 0 309.226 118.734 A 3.086 3.086 0 0 0 308.458 118.824 A 2.066 2.066 0 0 0 307.305 119.57 A 2.681 2.681 0 0 0 306.888 120.376 Q 306.765 120.746 306.707 121.199 A 6.853 6.853 0 0 0 306.656 122.062 Z M 316.75 121.773 L 316.75 122.063 Q 316.75 123.595 317.184 124.387 A 1.956 1.956 0 0 0 317.351 124.645 Q 317.953 125.422 319.281 125.422 Q 320.391 125.422 321.019 124.523 A 3.136 3.136 0 0 0 321.449 123.607 Q 321.648 122.935 321.648 122.047 A 6.544 6.544 0 0 0 321.587 121.119 Q 321.519 120.648 321.378 120.266 A 2.749 2.749 0 0 0 321.019 119.59 A 2.017 2.017 0 0 0 319.544 118.749 A 2.79 2.79 0 0 0 319.25 118.734 A 3.737 3.737 0 0 0 318.552 118.795 Q 317.768 118.944 317.351 119.461 A 2.222 2.222 0 0 0 317.004 120.094 Q 316.76 120.757 316.75 121.773 Z"
       id="top_labelLayer"
       stroke="#777777"
       fill="#777777"
       style="stroke:#777777;fill:#777777;stroke-width:0.01;stroke-miterlimit:4.80000019;stroke-dasharray:none"
       vector-effect="non-scaling-stroke" />
    <path
       d="M 0 10 L 0 20.5 L 3 20.5 L 3 38.5 L 0 38.5 L 0 56.5 L 3 56.5 L 3 74.5 L 0 74.5 L 0 85 L 30 85 L 30 82 L 48 82 L 48 85 L 66 85 L 66 82 L 84 82 L 84 85 L 102 85 L 102 82 L 120 82 L 120 85 L 138 85 L 150 85 L 150 74.5 L 147 74.5 L 147 56.5 L 150 56.5 L 150 38.5 L 147 38.5 L 147 20.5 L 150 20.5 L 150 10 L 120 10 L 120 13 L 102 13 L 102 10 L 84 10 L 84 13 L 66 13 L 66 10 L 48 10 L 48 13 L 30 13 L 30 10 L 12 10 L 0 10 Z"
       id="back_outsideCutPath"
       stroke="#FF0000"
       stroke-width="0.1"
       style="stroke:#FF0000;stroke-width:0.01;stroke-miterlimit:4.80000019;stroke-dasharray:none"
       vector-effect="non-scaling-stroke" />
    <path
       d="M 85.269 49.016 L 85.327 49.016 Q 85.642 48.569 86.287 47.844 L 88.879 45.098 L 90.322 45.098 L 87.07 48.518 L 90.549 53.125 L 89.077 53.125 L 86.243 49.331 L 85.327 50.122 L 85.327 53.125 L 84.126 53.125 L 84.126 41.728 L 85.327 41.728 L 85.327 47.771 A 8.102 8.102 0 0 1 85.323 48 Q 85.313 48.375 85.271 48.986 A 50.575 50.575 0 0 1 85.269 49.016 Z M 60.667 52.092 L 60.579 52.092 L 60.322 53.125 L 59.451 53.125 L 59.451 41.728 L 60.667 41.728 L 60.667 44.497 Q 60.667 45.397 60.612 46.119 A 15.19 15.19 0 0 1 60.608 46.167 L 60.667 46.167 A 2.764 2.764 0 0 1 62.684 44.995 A 4.152 4.152 0 0 1 63.186 44.966 A 3.716 3.716 0 0 1 64.232 45.105 A 2.782 2.782 0 0 1 65.643 46.046 A 3.583 3.583 0 0 1 66.272 47.256 Q 66.426 47.754 66.484 48.352 A 7.804 7.804 0 0 1 66.519 49.104 Q 66.519 50.499 66.079 51.455 A 3.417 3.417 0 0 1 65.636 52.176 A 2.878 2.878 0 0 1 63.59 53.252 A 4.124 4.124 0 0 1 63.186 53.271 A 3.688 3.688 0 0 1 62.259 53.158 A 3.209 3.209 0 0 1 61.754 52.982 A 2.693 2.693 0 0 1 60.667 52.092 Z M 74.48 53.125 L 73.579 53.125 L 73.337 51.982 L 73.279 51.982 A 5.04 5.04 0 0 1 72.871 52.439 Q 72.652 52.654 72.433 52.805 A 2.24 2.24 0 0 1 72.081 53.004 A 2.804 2.804 0 0 1 71.502 53.187 Q 71.221 53.245 70.896 53.263 A 5.471 5.471 0 0 1 70.591 53.271 A 3.731 3.731 0 0 1 69.832 53.199 Q 69.368 53.102 69.011 52.878 A 2.094 2.094 0 0 1 68.719 52.656 A 1.998 1.998 0 0 1 68.117 51.602 A 3.059 3.059 0 0 1 68.042 50.906 A 2.104 2.104 0 0 1 69.239 48.92 Q 70.13 48.446 71.684 48.367 A 11.876 11.876 0 0 1 71.931 48.357 L 73.293 48.313 L 73.293 47.815 A 3.492 3.492 0 0 0 73.259 47.31 Q 73.222 47.052 73.142 46.845 A 1.357 1.357 0 0 0 72.887 46.42 A 1.234 1.234 0 0 0 72.381 46.09 Q 72.179 46.016 71.928 45.988 A 3.004 3.004 0 0 0 71.587 45.969 A 3.958 3.958 0 0 0 70.676 46.083 Q 70.258 46.182 69.803 46.367 A 8.143 8.143 0 0 0 69.316 46.584 L 68.943 45.654 A 5.606 5.606 0 0 1 70.025 45.209 A 6.381 6.381 0 0 1 70.243 45.149 A 5.631 5.631 0 0 1 71.66 44.966 A 5.135 5.135 0 0 1 72.442 45.021 Q 72.844 45.083 73.165 45.215 A 2.069 2.069 0 0 1 73.788 45.603 A 1.925 1.925 0 0 1 74.285 46.369 Q 74.401 46.684 74.448 47.075 A 4.784 4.784 0 0 1 74.48 47.646 L 74.48 53.125 Z M 82.339 45.369 L 81.965 46.401 A 5.409 5.409 0 0 0 81.379 46.206 A 6.46 6.46 0 0 0 81.086 46.134 A 5.022 5.022 0 0 0 80.704 46.063 Q 80.456 46.028 80.244 46.028 Q 78.071 46.028 77.828 48.489 A 6.718 6.718 0 0 0 77.798 49.148 A 5.888 5.888 0 0 0 77.856 50.005 Q 77.92 50.44 78.055 50.793 A 2.522 2.522 0 0 0 78.395 51.418 A 1.931 1.931 0 0 0 79.646 52.166 A 2.942 2.942 0 0 0 80.164 52.209 A 5.09 5.09 0 0 0 81.568 52.005 A 6.284 6.284 0 0 0 82.222 51.777 L 82.222 52.854 A 3.458 3.458 0 0 1 81.376 53.153 Q 80.843 53.271 80.193 53.271 A 4.544 4.544 0 0 1 79.087 53.145 A 3.081 3.081 0 0 1 77.494 52.198 A 3.517 3.517 0 0 1 76.762 50.855 Q 76.538 50.113 76.538 49.163 A 6.708 6.708 0 0 1 76.642 47.943 Q 76.768 47.262 77.047 46.726 A 3.352 3.352 0 0 1 77.509 46.05 A 3.148 3.148 0 0 1 79.232 45.058 A 4.773 4.773 0 0 1 80.273 44.951 A 5.487 5.487 0 0 1 81.431 45.076 Q 82.003 45.199 82.332 45.365 A 1.838 1.838 0 0 1 82.339 45.369 Z M 63.01 45.984 A 3.417 3.417 0 0 0 62.349 46.043 Q 61.972 46.118 61.685 46.286 A 1.617 1.617 0 0 0 61.216 46.698 A 2.081 2.081 0 0 0 60.914 47.272 Q 60.667 47.967 60.667 49.104 A 8.039 8.039 0 0 0 60.706 49.935 Q 60.794 50.773 61.073 51.283 A 1.834 1.834 0 0 0 61.23 51.525 Q 61.736 52.178 62.789 52.246 A 3.909 3.909 0 0 0 63.04 52.253 A 2.424 2.424 0 0 0 63.728 52.161 A 1.749 1.749 0 0 0 64.709 51.437 Q 65.102 50.853 65.214 49.906 A 6.967 6.967 0 0 0 65.259 49.089 Q 65.259 47.603 64.765 46.835 A 2.017 2.017 0 0 0 64.709 46.753 Q 64.16 45.984 63.01 45.984 Z M 73.264 49.902 L 73.264 49.177 L 72.048 49.228 Q 70.598 49.28 69.957 49.679 A 1.297 1.297 0 0 0 69.339 50.62 A 1.92 1.92 0 0 0 69.316 50.92 Q 69.316 51.5 69.625 51.836 A 1.083 1.083 0 0 0 69.716 51.924 A 1.324 1.324 0 0 0 70.211 52.187 Q 70.484 52.268 70.833 52.268 A 3.348 3.348 0 0 0 71.555 52.194 Q 72.191 52.054 72.616 51.645 Q 73.261 51.026 73.264 49.915 A 3.852 3.852 0 0 0 73.264 49.902 Z"
       id="back_labelLayer"
       stroke="#777777"
       fill="#777777"
       style="stroke:#777777;fill:#777777;stroke-width:0.01;stroke-miterlimit:4.80000019;stroke-dasharray:none"
       vector-effect="non-scaling-stroke" />
    <path
       d="M 156 10 L 156 20.5 L 153 20.5 L 153 38.5 L 156 38.5 L 156 56.5 L 153 56.5 L 153 74.5 L 156 74.5 L 156 85 L 166 85 L 166 82 L 184 82 L 184 85 L 202 85 L 202 82 L 220 82 L 220 85 L 230 85 L 230 74.5 L 233 74.5 L 233 56.5 L 230 56.5 L 230 38.5 L 233 38.5 L 233 20.5 L 230 20.5 L 230 10 L 220 10 L 220 13 L 202 13 L 202 10 L 184 10 L 184 13 L 166 13 L 166 10 L 156 10 Z"
       id="right_outsideCutPath"
       stroke="#FF0000"
       stroke-width="0.1"
       style="stroke:#FF0000;stroke-width:0.01;stroke-miterlimit:4.80000019;stroke-dasharray:none"
       vector-effect="non-scaling-stroke" />
    <path
       d="M 202.327 51.396 L 201.112 51.396 L 201.112 46.204 Q 201.112 45.578 200.93 45.155 A 1.446 1.446 0 0 0 200.665 44.739 Q 200.303 44.347 199.61 44.273 A 3.223 3.223 0 0 0 199.266 44.255 Q 198.438 44.255 197.903 44.549 A 1.702 1.702 0 0 0 197.417 44.944 A 2.023 2.023 0 0 0 197.073 45.552 Q 196.834 46.196 196.834 47.2 L 196.834 51.396 L 195.618 51.396 L 195.618 40 L 196.834 40 L 196.834 43.45 A 10.937 10.937 0 0 1 196.827 43.87 Q 196.813 44.22 196.776 44.482 L 196.849 44.482 Q 197.208 43.904 197.871 43.571 A 3.121 3.121 0 0 1 198.895 43.267 A 3.946 3.946 0 0 1 199.383 43.237 A 4.933 4.933 0 0 1 200.212 43.302 Q 201.08 43.45 201.591 43.937 A 2.117 2.117 0 0 1 202.113 44.757 Q 202.239 45.097 202.291 45.521 A 5.257 5.257 0 0 1 202.327 46.16 L 202.327 51.396 Z M 191.195 43.369 L 193.97 43.369 L 193.97 44.138 L 192.484 44.314 A 1.976 1.976 0 0 1 192.655 44.568 Q 192.759 44.751 192.85 44.984 A 2.339 2.339 0 0 1 192.988 45.543 A 3.004 3.004 0 0 1 193.011 45.918 A 2.787 2.787 0 0 1 192.883 46.782 A 2.254 2.254 0 0 1 192.205 47.8 A 2.697 2.697 0 0 1 191.145 48.359 Q 190.631 48.503 189.993 48.503 A 3.907 3.907 0 0 1 189.541 48.478 A 3.3 3.3 0 0 1 189.32 48.445 A 2.164 2.164 0 0 0 188.971 48.67 Q 188.79 48.816 188.686 48.982 A 0.915 0.915 0 0 0 188.543 49.477 A 0.63 0.63 0 0 0 188.575 49.684 Q 188.634 49.853 188.798 49.955 A 0.675 0.675 0 0 0 188.814 49.965 A 0.853 0.853 0 0 0 189.003 50.042 Q 189.201 50.1 189.503 50.116 A 4.625 4.625 0 0 0 189.744 50.122 L 191.165 50.122 A 4.977 4.977 0 0 1 191.921 50.176 Q 192.316 50.237 192.636 50.366 A 2.197 2.197 0 0 1 193.168 50.671 Q 193.868 51.221 193.868 52.268 A 2.632 2.632 0 0 1 193.718 53.179 Q 193.467 53.863 192.799 54.3 Q 192.053 54.788 190.83 54.936 A 9.637 9.637 0 0 1 189.678 55 A 6.812 6.812 0 0 1 188.765 54.943 Q 188.301 54.88 187.922 54.748 A 2.826 2.826 0 0 1 187.25 54.414 A 1.938 1.938 0 0 1 186.626 53.736 Q 186.426 53.365 186.401 52.895 A 2.567 2.567 0 0 1 186.397 52.759 A 1.859 1.859 0 0 1 186.866 51.492 A 2.123 2.123 0 0 1 187.595 50.96 A 3.009 3.009 0 0 1 188.184 50.767 A 1.262 1.262 0 0 1 187.694 50.37 A 1.498 1.498 0 0 1 187.668 50.334 Q 187.459 50.041 187.459 49.653 A 1.39 1.39 0 0 1 187.529 49.205 A 1.232 1.232 0 0 1 187.694 48.884 Q 187.871 48.635 188.203 48.399 A 3.819 3.819 0 0 1 188.433 48.247 A 2.131 2.131 0 0 1 187.507 47.506 A 2.642 2.642 0 0 1 187.419 47.375 A 2.513 2.513 0 0 1 187.033 46.164 A 3.067 3.067 0 0 1 187.027 45.969 A 3.513 3.513 0 0 1 187.12 45.139 A 2.311 2.311 0 0 1 187.818 43.937 Q 188.609 43.223 190.059 43.223 A 4.66 4.66 0 0 1 190.676 43.262 A 3.549 3.549 0 0 1 191.195 43.369 Z M 208.516 50.393 L 208.516 51.323 Q 208.338 51.409 208.007 51.468 A 4.545 4.545 0 0 1 207.934 51.481 Q 207.575 51.539 207.283 51.543 A 3.113 3.113 0 0 1 207.242 51.543 Q 204.913 51.543 204.913 49.089 L 204.913 44.314 L 203.763 44.314 L 203.763 43.728 L 204.913 43.223 L 205.426 41.509 L 206.129 41.509 L 206.129 43.369 L 208.458 43.369 L 208.458 44.314 L 206.129 44.314 L 206.129 49.038 A 2.448 2.448 0 0 0 206.164 49.468 Q 206.206 49.704 206.299 49.891 A 1.179 1.179 0 0 0 206.473 50.151 A 1.129 1.129 0 0 0 207.167 50.521 A 1.625 1.625 0 0 0 207.418 50.54 A 3.993 3.993 0 0 0 208.003 50.498 A 3.68 3.68 0 0 0 208.04 50.492 A 6.577 6.577 0 0 0 208.216 50.462 Q 208.384 50.43 208.5 50.398 A 1.826 1.826 0 0 0 208.516 50.393 Z M 182.105 43.311 L 181.937 44.438 Q 181.522 44.347 181.188 44.332 A 2.852 2.852 0 0 0 181.058 44.329 A 2.107 2.107 0 0 0 179.501 45.001 A 2.882 2.882 0 0 0 179.392 45.12 A 2.776 2.776 0 0 0 178.722 46.679 A 3.69 3.69 0 0 0 178.699 47.09 L 178.699 51.396 L 177.484 51.396 L 177.484 43.369 L 178.487 43.369 L 178.626 44.856 L 178.685 44.856 A 4.106 4.106 0 0 1 179.144 44.2 A 3.136 3.136 0 0 1 179.761 43.647 A 2.424 2.424 0 0 1 181.146 43.223 A 5.582 5.582 0 0 1 181.645 43.244 A 4.074 4.074 0 0 1 182.105 43.311 Z M 184.823 43.369 L 184.823 51.396 L 183.607 51.396 L 183.607 43.369 L 184.823 43.369 Z M 190.777 51.213 L 189.32 51.213 A 2.795 2.795 0 0 0 188.816 51.256 Q 188.53 51.308 188.304 51.425 A 1.424 1.424 0 0 0 188.031 51.609 A 1.281 1.281 0 0 0 187.61 52.335 A 1.945 1.945 0 0 0 187.569 52.744 Q 187.569 53.352 188.047 53.686 A 1.427 1.427 0 0 0 188.118 53.733 Q 188.665 54.068 189.683 54.07 A 6.246 6.246 0 0 0 189.693 54.07 Q 191.224 54.07 191.96 53.612 Q 192.696 53.154 192.696 52.371 Q 192.696 51.719 192.293 51.466 A 1.153 1.153 0 0 0 192.02 51.347 Q 191.586 51.213 190.777 51.213 Z M 188.228 45.94 A 2.373 2.373 0 0 0 188.277 46.437 Q 188.381 46.921 188.704 47.214 Q 189.133 47.604 189.865 47.642 A 3.131 3.131 0 0 0 190.03 47.646 Q 191.81 47.646 191.81 45.918 A 2.614 2.614 0 0 0 191.72 45.202 Q 191.409 44.109 190.008 44.109 A 2.551 2.551 0 0 0 189.488 44.159 Q 189.17 44.225 188.927 44.38 A 1.399 1.399 0 0 0 188.69 44.57 A 1.459 1.459 0 0 0 188.337 45.165 Q 188.228 45.5 188.228 45.94 Z M 183.709 40.582 A 0.569 0.569 0 0 0 183.584 40.761 Q 183.504 40.934 183.504 41.194 A 1.435 1.435 0 0 0 183.51 41.331 Q 183.522 41.454 183.556 41.554 A 0.628 0.628 0 0 0 183.709 41.805 A 0.682 0.682 0 0 0 183.956 41.963 A 0.772 0.772 0 0 0 184.222 42.007 A 0.709 0.709 0 0 0 184.727 41.805 Q 184.94 41.604 184.94 41.194 A 1.391 1.391 0 0 0 184.934 41.062 Q 184.922 40.942 184.889 40.844 A 0.614 0.614 0 0 0 184.727 40.586 A 0.716 0.716 0 0 0 184.222 40.388 A 0.928 0.928 0 0 0 184.16 40.39 A 0.703 0.703 0 0 0 183.709 40.582 Z"
       id="right_labelLayer"
       stroke="#777777"
       fill="#777777"
       style="stroke:#777777;fill:#777777;stroke-width:0.01;stroke-miterlimit:4.80000019;stroke-dasharray:none"
       vector-effect="non-scaling-stroke" />
    <path
       d="M 239 3 L 239 13 L 236 13 L 236 31 L 239 31 L 239 49 L 236 49 L 236 67 L 239 67 L 239 77 L 266 77 L 266 80 L 284 80 L 284 77 L 302 77 L 302 80 L 320 80 L 320 77 L 338 77 L 338 80 L 356 80 L 356 77 L 374 77 L 383 77 L 383 67 L 386 67 L 386 49 L 383 49 L 383 31 L 386 31 L 386 13 L 383 13 L 383 3 L 356 3 L 356 0 L 338 0 L 338 3 L 320 3 L 320 0 L 302 0 L 302 3 L 284 3 L 284 0 L 266 0 L 266 3 L 248 3 L 239 3 Z"
       id="bottom_outsideCutPath"
       stroke="#FF0000"
       stroke-width="0.1"
       style="stroke:#FF0000;stroke-width:0.01;stroke-miterlimit:4.80000019;stroke-dasharray:none"
       vector-effect="non-scaling-stroke" />
    <path
       d="M 337.32 46 L 336.023 46 L 336.023 40.429 Q 336.023 39.788 335.852 39.348 A 1.567 1.567 0 0 0 335.586 38.894 A 1.365 1.365 0 0 0 334.952 38.484 Q 334.725 38.411 334.45 38.391 A 3.01 3.01 0 0 0 334.227 38.383 A 3.337 3.337 0 0 0 333.547 38.447 Q 333.144 38.531 332.839 38.725 A 1.717 1.717 0 0 0 332.437 39.078 A 2.143 2.143 0 0 0 332.074 39.736 Q 331.861 40.333 331.859 41.205 A 7.141 7.141 0 0 0 331.859 41.219 L 331.859 46 L 330.562 46 L 330.562 40.429 Q 330.562 39.788 330.391 39.348 A 1.567 1.567 0 0 0 330.125 38.894 Q 329.746 38.451 328.999 38.392 A 3.037 3.037 0 0 0 328.758 38.383 A 3.221 3.221 0 0 0 328.092 38.447 Q 327.371 38.599 326.973 39.113 A 2.175 2.175 0 0 0 326.65 39.726 Q 326.441 40.317 326.411 41.204 A 9.03 9.03 0 0 0 326.406 41.508 L 326.406 46 L 325.109 46 L 325.109 37.437 L 326.164 37.437 L 326.375 38.609 L 326.437 38.609 A 2.549 2.549 0 0 1 327.473 37.633 A 3.079 3.079 0 0 1 328.689 37.291 A 3.719 3.719 0 0 1 328.969 37.281 A 4.246 4.246 0 0 1 329.924 37.381 Q 330.512 37.517 330.922 37.838 A 2.214 2.214 0 0 1 331.594 38.734 L 331.656 38.734 A 2.708 2.708 0 0 1 332.676 37.722 A 3.254 3.254 0 0 1 332.766 37.672 A 3.282 3.282 0 0 1 333.97 37.305 A 4.093 4.093 0 0 1 334.422 37.281 A 4.508 4.508 0 0 1 335.24 37.35 Q 335.694 37.434 336.049 37.62 A 2.137 2.137 0 0 1 336.598 38.027 Q 337.124 38.57 337.267 39.588 A 5.948 5.948 0 0 1 337.32 40.414 L 337.32 46 Z M 285.977 44.898 L 285.883 44.898 L 285.609 46 L 284.68 46 L 284.68 33.844 L 285.977 33.844 L 285.977 36.797 A 27.039 27.039 0 0 1 285.962 37.71 Q 285.946 38.171 285.914 38.578 L 285.977 38.578 A 2.949 2.949 0 0 1 288.129 37.328 A 4.429 4.429 0 0 1 288.664 37.297 A 3.964 3.964 0 0 1 289.78 37.445 A 2.967 2.967 0 0 1 291.285 38.449 Q 292.219 39.601 292.219 41.711 Q 292.219 43.199 291.75 44.219 A 3.645 3.645 0 0 1 291.277 44.988 A 3.07 3.07 0 0 1 289.095 46.135 A 4.399 4.399 0 0 1 288.664 46.156 A 3.934 3.934 0 0 1 287.676 46.036 A 3.423 3.423 0 0 1 287.137 45.847 A 2.872 2.872 0 0 1 285.977 44.898 Z M 308.086 44.929 L 308.086 45.922 A 1.276 1.276 0 0 1 307.935 45.982 Q 307.747 46.044 307.465 46.09 A 5.621 5.621 0 0 1 307.098 46.137 Q 306.926 46.154 306.77 46.156 A 3.325 3.325 0 0 1 306.727 46.156 A 3.387 3.387 0 0 1 305.728 46.022 Q 304.631 45.683 304.344 44.491 A 4.076 4.076 0 0 1 304.242 43.539 L 304.242 38.445 L 303.016 38.445 L 303.016 37.82 L 304.242 37.281 L 304.789 35.453 L 305.539 35.453 L 305.539 37.437 L 308.023 37.437 L 308.023 38.445 L 305.539 38.445 L 305.539 43.484 A 2.611 2.611 0 0 0 305.577 43.943 Q 305.657 44.39 305.906 44.672 Q 306.273 45.086 306.914 45.086 A 4.259 4.259 0 0 0 307.538 45.041 A 3.925 3.925 0 0 0 307.578 45.035 Q 307.884 44.986 308.069 44.934 A 1.951 1.951 0 0 0 308.086 44.929 Z M 313.734 44.929 L 313.734 45.922 A 1.276 1.276 0 0 1 313.583 45.982 Q 313.395 46.044 313.113 46.09 A 5.621 5.621 0 0 1 312.747 46.137 Q 312.574 46.154 312.419 46.156 A 3.325 3.325 0 0 1 312.375 46.156 A 3.387 3.387 0 0 1 311.377 46.022 Q 310.28 45.683 309.992 44.491 A 4.076 4.076 0 0 1 309.891 43.539 L 309.891 38.445 L 308.664 38.445 L 308.664 37.82 L 309.891 37.281 L 310.437 35.453 L 311.187 35.453 L 311.187 37.437 L 313.672 37.437 L 313.672 38.445 L 311.187 38.445 L 311.187 43.484 A 2.611 2.611 0 0 0 311.225 43.943 Q 311.305 44.39 311.555 44.672 Q 311.922 45.086 312.562 45.086 A 4.259 4.259 0 0 0 313.186 45.041 A 3.925 3.925 0 0 0 313.227 45.035 Q 313.532 44.986 313.717 44.934 A 1.951 1.951 0 0 0 313.734 44.929 Z M 301.756 43.014 A 6.699 6.699 0 0 0 301.875 41.711 Q 301.875 40.878 301.699 40.187 A 4.038 4.038 0 0 0 300.816 38.476 A 3.395 3.395 0 0 0 299.24 37.46 A 4.358 4.358 0 0 0 297.961 37.281 A 5.037 5.037 0 0 0 297.056 37.359 A 3.43 3.43 0 0 0 295.055 38.449 Q 294.008 39.617 294.008 41.711 A 6.488 6.488 0 0 0 294.089 42.762 A 4.798 4.798 0 0 0 294.492 44.07 A 4.263 4.263 0 0 0 294.587 44.255 A 3.511 3.511 0 0 0 295.867 45.617 Q 296.758 46.156 297.906 46.156 A 5.036 5.036 0 0 0 298.786 46.083 A 3.457 3.457 0 0 0 300.82 44.98 A 3.618 3.618 0 0 0 301.251 44.388 Q 301.602 43.787 301.756 43.014 Z M 322.717 43.014 A 6.699 6.699 0 0 0 322.836 41.711 Q 322.836 40.878 322.66 40.187 A 4.038 4.038 0 0 0 321.777 38.476 A 3.395 3.395 0 0 0 320.201 37.46 A 4.358 4.358 0 0 0 318.922 37.281 A 5.037 5.037 0 0 0 318.017 37.359 A 3.43 3.43 0 0 0 316.016 38.449 Q 314.969 39.617 314.969 41.711 A 6.488 6.488 0 0 0 315.05 42.762 A 4.798 4.798 0 0 0 315.453 44.07 A 4.263 4.263 0 0 0 315.547 44.255 A 3.511 3.511 0 0 0 316.828 45.617 Q 317.719 46.156 318.867 46.156 A 5.036 5.036 0 0 0 319.747 46.083 A 3.457 3.457 0 0 0 321.781 44.98 A 3.618 3.618 0 0 0 322.212 44.388 Q 322.563 43.787 322.717 43.014 Z M 295.352 41.711 A 6.567 6.567 0 0 0 295.414 42.649 Q 295.554 43.617 296.008 44.211 Q 296.664 45.07 297.937 45.07 A 3.012 3.012 0 0 0 298.732 44.971 A 2.096 2.096 0 0 0 299.871 44.215 Q 300.531 43.359 300.531 41.711 A 6.471 6.471 0 0 0 300.47 40.789 Q 300.402 40.319 300.26 39.939 A 2.67 2.67 0 0 0 299.871 39.23 A 2.133 2.133 0 0 0 298.545 38.439 A 3.271 3.271 0 0 0 297.922 38.383 A 3.086 3.086 0 0 0 297.153 38.473 A 2.066 2.066 0 0 0 296 39.219 A 2.681 2.681 0 0 0 295.583 40.024 Q 295.46 40.394 295.402 40.847 A 6.853 6.853 0 0 0 295.352 41.711 Z M 316.312 41.711 A 6.567 6.567 0 0 0 316.375 42.649 Q 316.515 43.617 316.969 44.211 Q 317.625 45.07 318.898 45.07 A 3.012 3.012 0 0 0 319.693 44.971 A 2.096 2.096 0 0 0 320.832 44.215 Q 321.492 43.359 321.492 41.711 A 6.471 6.471 0 0 0 321.431 40.789 Q 321.363 40.319 321.22 39.939 A 2.67 2.67 0 0 0 320.832 39.23 A 2.133 2.133 0 0 0 319.506 38.439 A 3.271 3.271 0 0 0 318.883 38.383 A 3.086 3.086 0 0 0 318.114 38.473 A 2.066 2.066 0 0 0 316.961 39.219 A 2.681 2.681 0 0 0 316.544 40.024 Q 316.421 40.394 316.363 40.847 A 6.853 6.853 0 0 0 316.312 41.711 Z M 287.063 38.705 A 1.725 1.725 0 0 0 286.562 39.144 A 2.22 2.22 0 0 0 286.241 39.756 Q 286.024 40.364 285.985 41.288 A 9.992 9.992 0 0 0 285.977 41.711 Q 285.977 43.244 286.411 44.035 A 1.956 1.956 0 0 0 286.578 44.293 Q 287.18 45.07 288.508 45.07 Q 289.703 45.07 290.289 44.199 A 2.977 2.977 0 0 0 290.657 43.402 Q 290.875 42.69 290.875 41.695 A 7.662 7.662 0 0 0 290.829 40.822 Q 290.719 39.867 290.348 39.291 A 2.151 2.151 0 0 0 290.289 39.203 A 1.891 1.891 0 0 0 289.085 38.441 A 2.999 2.999 0 0 0 288.477 38.383 Q 287.613 38.383 287.063 38.705 Z"
       id="bottom_labelLayer"
       stroke="#777777"
       fill="#777777"
       style="stroke:#777777;fill:#777777;stroke-width:0.01;stroke-miterlimit:4.80000019;stroke-dasharray:none"
       vector-effect="non-scaling-stroke" />
    <rect
       style="stroke-width:0.01;stroke-linecap:round;stroke-miterlimit:4.80000019;stroke-dasharray:none;fill:none;fill-opacity:1;stroke:#ff0000;stroke-opacity:1"
       id="rect919"
       width="25.918577"
       height="49.918575"
       x="258.96771"
       y="98.053711"
       ry="0" />
    <polygon
       transform="matrix(-0.35276629,0,0,0.35276066,305.37915,13.601479)"
       id="polygon1403"
       points="494.3,278.94 499.98,278.94 499.98,293.12 534,293.12 534,278.94 539.66,278.94 539.66,273.36 534,273.36 534,259.11 499.98,259.11 499.98,273.36 494.3,273.36 "
       class="cls-2"
       style="fill:none;stroke:#ff0000;stroke-width:0.02834761;stroke-miterlimit:4.80000019;stroke-dasharray:none" />
    <polygon
       transform="matrix(-0.35276629,0,0,0.35276066,280.37886,13.601479)"
       id="polygon1403-7"
       points="499.98,278.94 499.98,293.12 534,293.12 534,278.94 539.66,278.94 539.66,273.36 534,273.36 534,259.11 499.98,259.11 499.98,273.36 494.3,273.36 494.3,278.94 "
       class="cls-2"
       style="fill:none;stroke:#ff0000;stroke-width:0.02834761;stroke-miterlimit:4.80000019;stroke-dasharray:none" />
    <circle
       style="fill:none;fill-opacity:1;stroke:#ff0000;stroke-width:0.01;stroke-linecap:round;stroke-miterlimit:4.80000019;stroke-dasharray:none;stroke-opacity:1"
       id="path1046"
       cx="110.5"
       cy="140.47957"
       r="3.4745641" />
    <g
       id="text1052"
       style="font-style:normal;font-variant:normal;font-weight:normal;font-stretch:normal;font-size:10.5833px;line-height:1.25;font-family:Centaur;-inkscape-font-specification:Centaur;fill:#000000;fill-opacity:1;stroke:none;stroke-width:0.01;stroke-miterlimit:4.80000019;stroke-dasharray:none" />
    <text
       xml:space="preserve"
       style="font-style:normal;font-weight:normal;font-size:10.5833px;line-height:1.25;font-family:sans-serif;fill:#000000;fill-opacity:1;stroke:none;stroke-width:0.01;stroke-miterlimit:4.80000019;stroke-dasharray:none"
       x="95.509354"
       y="126.91946"
       id="text1057"><tspan
         sodipodi:role="line"
         id="tspan1055"
         x="95.509354"
         y="126.91946"
         style="stroke-width:0.01;stroke-miterlimit:4.80000019;stroke-dasharray:none">↑</tspan></text>
    <text
       id="text1057-8"
       y="-122.21691"
       x="120.50935"
       style="font-style:normal;font-weight:normal;font-size:10.5833px;line-height:1.25;font-family:sans-serif;fill:#000000;fill-opacity:1;stroke:none;stroke-width:0.01;stroke-miterlimit:4.80000019;stroke-dasharray:none"
       xml:space="preserve"
       transform="scale(1,-1)"><tspan
         style="stroke-width:0.01;stroke-miterlimit:4.80000019;stroke-dasharray:none"
         y="-122.21691"
         x="120.50935"
         id="tspan1055-9"
         sodipodi:role="line">↑</tspan></text>
    <text
       xml:space="preserve"
       style="font-style:normal;font-weight:normal;font-size:10.5833px;line-height:1.25;font-family:sans-serif;fill:#000000;fill-opacity:1;stroke:none;stroke-width:0.01;stroke-miterlimit:4.80000019;stroke-dasharray:none"
       x="105.29176"
       y="154.53719"
       id="text1079"><tspan
         sodipodi:role="line"
         id="tspan1077"
         x="105.29176"
         y="154.53719"
         style="stroke-width:0.01;stroke-miterlimit:4.80000019;stroke-dasharray:none">↔</tspan></text>
  </g>
</svg>
